<svg width="34" height="34" viewBox="0 0 34 34" fill="none" xmlns="http://www.w3.org/2000/svg">
<path d="M21.7436 33.9999C23.1445 33.9999 24.2802 32.8159 24.2802 31.3554C24.2802 29.8949 23.1445 28.7109 21.7436 28.7109C20.3427 28.7109 19.207 29.8949 19.207 31.3554C19.207 32.8159 20.3427 33.9999 21.7436 33.9999Z" fill="white"/>
<path d="M10.146 33.9999C11.5469 33.9999 12.6825 32.8159 12.6825 31.3554C12.6825 29.8949 11.5469 28.7109 10.146 28.7109C8.74504 28.7109 7.60938 29.8949 7.60938 31.3554C7.60938 32.8159 8.74504 33.9999 10.146 33.9999Z" fill="white"/>
<path d="M5.20361 5.95407L4.91371 9.65631C4.85573 10.3665 5.39204 10.9559 6.07329 10.9559H28.2647C28.8735 10.9559 29.3808 10.4723 29.4243 9.83765C29.6127 7.16296 27.6559 4.98695 25.0904 4.98695H7.27635C7.13141 4.32206 6.84151 3.68739 6.39218 3.1585C5.66744 2.35761 4.65281 1.88916 3.60919 1.88916H1.0871C0.492821 1.88916 0 2.40294 0 3.0225C0 3.64206 0.492821 4.15584 1.0871 4.15584H3.60919C4.05852 4.15584 4.47887 4.35228 4.78326 4.68473C5.08765 5.03229 5.2326 5.48562 5.20361 5.95407Z" fill="white"/>
<path d="M27.9192 13.2227H5.68424C5.07546 13.2227 4.58264 13.7062 4.52466 14.3258L4.00285 20.8991C3.79993 23.4832 5.74222 25.6894 8.22082 25.6894H24.339C26.5132 25.6894 28.4265 23.8307 28.5859 21.564L29.0642 14.5071C29.1222 13.812 28.6004 13.2227 27.9192 13.2227Z" fill="white"/>
</svg>
