<svg width="30" height="24" viewBox="0 0 30 24" fill="none" xmlns="http://www.w3.org/2000/svg">
<path d="M25.3964 2.61423C23.4839 1.75173 21.4339 1.11423 19.2901 0.751735C19.271 0.748069 19.2513 0.750431 19.2336 0.758494C19.2159 0.766556 19.2011 0.77992 19.1914 0.796735C18.9289 1.25798 18.6364 1.85923 18.4314 2.33423C16.1577 1.99453 13.8462 1.99453 11.5726 2.33423C11.3443 1.80781 11.0868 1.29451 10.8014 0.796735C10.7917 0.779713 10.7771 0.766047 10.7594 0.75756C10.7418 0.749073 10.722 0.746168 10.7026 0.749234C8.56011 1.11173 6.51011 1.74923 4.59636 2.61298C4.5799 2.61989 4.56594 2.63167 4.55636 2.64673C0.666363 8.36548 -0.399888 13.943 0.123863 19.4505C0.12532 19.464 0.129507 19.477 0.136169 19.4888C0.14283 19.5007 0.151828 19.511 0.162613 19.5192C2.4331 21.1723 4.96553 22.4315 7.65386 23.2442C7.6726 23.25 7.69265 23.25 7.71138 23.2442C7.73011 23.2384 7.74666 23.2271 7.75886 23.2117C8.33736 22.4381 8.84999 21.6173 9.29136 20.758C9.29749 20.7462 9.30102 20.7333 9.30172 20.7201C9.30241 20.7068 9.30026 20.6936 9.2954 20.6813C9.29054 20.669 9.28309 20.6578 9.27355 20.6486C9.26401 20.6394 9.25261 20.6324 9.24011 20.628C8.43262 20.3239 7.65022 19.9569 6.90011 19.5305C6.88663 19.5228 6.87528 19.5119 6.86706 19.4987C6.85884 19.4855 6.85402 19.4705 6.85303 19.4551C6.85204 19.4396 6.85491 19.4241 6.86138 19.41C6.86785 19.3959 6.87773 19.3836 6.89011 19.3742C7.04761 19.258 7.20511 19.1367 7.35511 19.0155C7.36862 19.0046 7.38488 18.9976 7.40209 18.9954C7.41931 18.9932 7.4368 18.9958 7.45261 19.003C12.3614 21.208 17.6776 21.208 22.5289 19.003C22.5447 18.9954 22.5624 18.9925 22.5799 18.9944C22.5973 18.9964 22.6139 19.0033 22.6276 19.0142C22.7776 19.1367 22.9339 19.258 23.0926 19.3742C23.1051 19.3834 23.1152 19.3955 23.1218 19.4095C23.1285 19.4235 23.1316 19.4389 23.1309 19.4544C23.1301 19.4699 23.1256 19.4849 23.1176 19.4982C23.1096 19.5115 23.0984 19.5226 23.0851 19.5305C22.3376 19.9605 21.5601 20.3242 20.7439 20.6267C20.7313 20.6313 20.7199 20.6385 20.7104 20.6478C20.7008 20.6571 20.6934 20.6683 20.6885 20.6808C20.6837 20.6932 20.6815 20.7065 20.6822 20.7198C20.6829 20.7331 20.6865 20.7461 20.6926 20.758C21.1426 21.6167 21.6576 22.4342 22.2239 23.2105C22.2356 23.2264 22.252 23.2383 22.2708 23.2446C22.2896 23.2508 22.3099 23.2512 22.3289 23.2455C25.0218 22.435 27.5584 21.1752 29.8314 19.5192C29.8425 19.5115 29.8518 19.5014 29.8587 19.4898C29.8656 19.4782 29.8699 19.4652 29.8714 19.4517C30.4964 13.0842 28.8239 7.55173 25.4351 2.64923C25.4268 2.6333 25.4131 2.62088 25.3964 2.61423ZM10.0251 16.0967C8.54761 16.0967 7.32886 14.7605 7.32886 13.1217C7.32886 11.4817 8.52386 10.1467 10.0251 10.1467C11.5376 10.1467 12.7451 11.493 12.7214 13.1217C12.7214 14.7617 11.5264 16.0967 10.0251 16.0967ZM19.9939 16.0967C18.5151 16.0967 17.2976 14.7605 17.2976 13.1217C17.2976 11.4817 18.4914 10.1467 19.9939 10.1467C21.5064 10.1467 22.7139 11.493 22.6901 13.1217C22.6901 14.7617 21.5076 16.0967 19.9939 16.0967Z" fill="white"/>
</svg>
