<svg width="100" height="100" viewBox="0 0 100 100" fill="none" xmlns="http://www.w3.org/2000/svg">
<path d="M40.087 47.4907L30.8785 56.7381C30.186 57.4317 30.186 58.5362 30.8785 59.2298C31.212 59.5637 31.6737 59.7436 32.1098 59.7436C32.5715 59.7436 33.0075 59.5637 33.3666 59.2298L42.5751 49.9823C43.2676 49.2888 43.2676 48.1842 42.5751 47.4907C41.8825 46.8228 40.7796 46.8228 40.087 47.4907Z" fill="white"/>
<path d="M74.2486 57.4322L54.8057 37.807L57.5759 35.0071C60.064 36.497 63.2446 36.7025 64.7324 36.7025C65.0915 36.7025 65.3479 36.6768 65.4762 36.6768C65.9636 36.6511 66.4253 36.3942 66.7587 36.0089L74.3512 26.2991C74.9668 25.5284 74.8129 24.4239 74.0691 23.8331C73.2995 23.2166 72.1966 23.3707 71.6066 24.1156L64.5015 33.1833C63.3729 33.1576 61.6287 32.9778 60.1922 32.387L70.2728 22.3175C70.9397 21.6239 70.9397 20.5194 70.2728 19.8258C69.5803 19.158 68.4773 19.158 67.7847 19.8258L57.7042 29.921C57.1399 28.5082 56.9603 26.7614 56.9347 25.6055L66.1431 18.5158C66.9126 17.925 67.0665 16.8204 66.4766 16.0498C65.861 15.2792 64.758 15.125 63.9885 15.7158L54.1131 23.345C53.7284 23.6533 53.4719 24.1156 53.4462 24.6294C53.4206 25.1688 53.241 29.4329 55.1135 32.5411L52.3176 35.3153L33.0799 15.8957C32.7721 15.5617 32.3104 15.3562 31.8487 15.3562C31.387 15.3562 30.9253 15.5617 30.5918 15.87L30.3353 16.1525C30.0532 16.4351 29.8736 16.8204 29.8223 17.2314C29.7881 17.7623 29.771 18.3017 29.771 18.8497C29.7966 24.7064 32.6951 31.5393 38.3895 39.1941C42.5192 44.794 46.6232 48.6985 46.7771 48.8783C47.1619 49.2122 47.6749 49.3921 48.1879 49.3407L51.6507 48.9554C52.6254 48.8269 53.318 47.9792 53.2154 47.0031C53.0871 46.027 52.215 45.3334 51.2659 45.4619L48.624 45.7444C45.982 43.0986 35.1319 31.6164 33.4903 21.29L71.7605 59.9239C72.094 60.2578 72.5557 60.4376 73.0174 60.4376C73.4534 60.4376 73.8895 60.2578 74.2486 59.9239C74.9412 59.2303 74.9412 58.1258 74.2486 57.4322Z" fill="white"/>
<path d="M28.3646 62.6205C27.9798 62.6205 27.6207 62.4664 27.3129 62.2095C20.2078 55.762 16.1294 46.5659 16.1294 36.9845C16.1294 18.2326 31.34 3 50.0647 3C68.7895 3 84.0001 18.2326 84.0001 36.9845C84.0001 45.076 80.5629 53.2703 74.3043 60.0261C73.7143 60.6682 72.7139 60.6939 72.0727 60.1031C71.4571 59.5123 71.4058 58.5105 71.9957 57.8683C77.7158 51.7033 80.8707 44.2797 80.8707 36.9845C80.8707 19.9794 67.0452 6.13386 50.0647 6.13386C33.0842 6.13386 19.2587 19.9794 19.2587 36.9845C19.2587 45.6925 22.978 54.0409 29.4162 59.8719C30.0575 60.4628 30.1088 61.4389 29.5188 62.0811C29.211 62.4407 28.8006 62.6205 28.3646 62.6205Z" fill="white"/>
<path d="M15.6786 77.2976H11.073C11.0403 76.9179 10.9532 76.5734 10.8117 76.2642C10.6756 75.955 10.4851 75.6892 10.2401 75.4668C10.0005 75.239 9.70929 75.0654 9.36632 74.9461C9.02335 74.8213 8.63411 74.759 8.1986 74.759C7.43644 74.759 6.79133 74.9434 6.26327 75.3122C5.74065 75.6811 5.34324 76.21 5.07104 76.8989C4.80429 77.5878 4.67091 78.415 4.67091 79.3805C4.67091 80.4003 4.80701 81.2546 5.07921 81.9435C5.35685 82.627 5.75698 83.1423 6.2796 83.4895C6.80222 83.8312 7.431 84.0021 8.16593 84.0021C8.58512 84.0021 8.96075 83.9506 9.29283 83.8475C9.62491 83.739 9.91344 83.5844 10.1584 83.3837C10.4034 83.183 10.6021 82.9416 10.7545 82.6596C10.9124 82.3721 11.0186 82.0493 11.073 81.6913L15.6786 81.7239C15.6242 82.429 15.4254 83.1477 15.0825 83.88C14.7395 84.6069 14.2523 85.2795 13.6208 85.8979C12.9947 86.5109 12.219 87.0045 11.2935 87.3788C10.368 87.753 9.29283 87.9402 8.06794 87.9402C6.53275 87.9402 5.15543 87.612 3.93598 86.9557C2.72198 86.2993 1.76112 85.3338 1.05341 84.059C0.351135 82.7843 0 81.2248 0 79.3805C0 77.5254 0.359301 75.9632 1.0779 74.6939C1.7965 73.4191 2.76553 72.4563 3.98497 71.8054C5.20442 71.149 6.56541 70.8209 8.06794 70.8209C9.12407 70.8209 10.0958 70.9646 10.9832 71.2521C11.8705 71.5396 12.649 71.96 13.3186 72.5133C13.9882 73.0611 14.5272 73.7365 14.9355 74.5393C15.3438 75.3421 15.5915 76.2615 15.6786 77.2976Z" fill="white"/>
<path d="M22.3114 80.6824V87.7124H17.8038V71.0487H22.1481V77.5905H22.2787C22.5618 76.7931 23.0327 76.172 23.6914 75.7272C24.3501 75.277 25.1422 75.0519 26.0677 75.0519C26.9551 75.0519 27.7254 75.2526 28.3787 75.654C29.0374 76.0554 29.5464 76.6087 29.9057 77.3138C30.2704 78.019 30.4501 78.8272 30.4446 79.7385V87.7124H25.937V80.6824C25.9425 80.064 25.7873 79.5785 25.4716 79.2259C25.1613 78.8733 24.7176 78.6971 24.1405 78.6971C23.7758 78.6971 23.4546 78.7784 23.177 78.9411C22.9048 79.0985 22.6924 79.3263 22.54 79.6246C22.393 79.9175 22.3168 80.2701 22.3114 80.6824Z" fill="white"/>
<path d="M38.68 87.9402C37.3408 87.9402 36.1866 87.6852 35.2176 87.1753C34.254 86.66 33.5109 85.9223 32.9883 84.9622C32.4711 83.9967 32.2126 82.8413 32.2126 81.496C32.2126 80.205 32.4739 79.0768 32.9965 78.1112C33.5191 77.1457 34.2568 76.3944 35.2095 75.8574C36.1621 75.3204 37.2863 75.0519 38.582 75.0519C39.5292 75.0519 40.3867 75.1983 41.1543 75.4912C41.9219 75.7842 42.5778 76.21 43.1222 76.7687C43.6666 77.322 44.0858 77.9946 44.3798 78.7866C44.6738 79.5785 44.8208 80.4708 44.8208 81.4635V82.505H33.6171V80.0314H40.6725C40.667 79.6734 40.5745 79.3588 40.3948 79.0876C40.2206 78.811 39.9838 78.5967 39.6844 78.4448C39.3904 78.2875 39.0556 78.2089 38.68 78.2089C38.3152 78.2089 37.9804 78.2875 37.6756 78.4448C37.3707 78.5967 37.1257 78.8083 36.9406 79.0795C36.761 79.3507 36.6657 79.668 36.6548 80.0314V82.7002C36.6548 83.1016 36.7392 83.4596 36.908 83.7743C37.0767 84.0889 37.319 84.3357 37.6347 84.5147C37.9505 84.6937 38.3316 84.7832 38.778 84.7832C39.0883 84.7832 39.3714 84.7398 39.6272 84.653C39.8885 84.5662 40.1117 84.4415 40.2968 84.2787C40.4819 84.1106 40.618 83.9099 40.7051 83.6766H44.8208C44.6792 84.5445 44.3444 85.2985 43.8163 85.9386C43.2883 86.5732 42.5887 87.0669 41.7177 87.4194C40.8521 87.7666 39.8395 87.9402 38.68 87.9402Z" fill="white"/>
<path d="M54.1728 75.2146V78.4692H45.7782V75.2146H54.1728ZM47.3787 87.7124V74.8566C47.3787 73.826 47.5638 72.9716 47.934 72.2936C48.3042 71.6155 48.8268 71.1084 49.5019 70.772C50.1769 70.4357 50.9717 70.2676 51.8863 70.2676C52.4579 70.2676 53.0132 70.311 53.5522 70.3978C54.0966 70.4846 54.4994 70.5605 54.7607 70.6256L54.1075 73.8477C53.9441 73.7988 53.7536 73.7609 53.5359 73.7338C53.3181 73.7012 53.1276 73.6849 52.9642 73.6849C52.5396 73.6849 52.2538 73.7744 52.1068 73.9534C51.9598 74.1324 51.8863 74.3684 51.8863 74.6613V87.7124H47.3787Z" fill="white"/>
<path d="M63.4248 75.2146V78.4692H55.0302V75.2146H63.4248ZM56.6307 87.7124V74.8566C56.6307 73.826 56.8158 72.9716 57.186 72.2936C57.5562 71.6155 58.0788 71.1084 58.7539 70.772C59.4289 70.4357 60.2237 70.2676 61.1383 70.2676C61.7099 70.2676 62.2652 70.311 62.8042 70.3978C63.3486 70.4846 63.7514 70.5605 64.0127 70.6256L63.3595 73.8477C63.1961 73.7988 63.0056 73.7609 62.7878 73.7338C62.5701 73.7012 62.3796 73.6849 62.2162 73.6849C61.7916 73.6849 61.5058 73.7744 61.3588 73.9534C61.2118 74.1324 61.1383 74.3684 61.1383 74.6613V87.7124H56.6307Z" fill="white"/>
<path d="M70.7925 87.9402C69.4533 87.9402 68.2992 87.6852 67.3301 87.1753C66.3666 86.66 65.6235 85.9223 65.1009 84.9622C64.5837 83.9967 64.3251 82.8413 64.3251 81.496C64.3251 80.205 64.5864 79.0768 65.109 78.1112C65.6316 77.1457 66.3693 76.3944 67.322 75.8574C68.2747 75.3204 69.3988 75.0519 70.6945 75.0519C71.6418 75.0519 72.4992 75.1983 73.2668 75.4912C74.0344 75.7842 74.6904 76.21 75.2348 76.7687C75.7792 77.322 76.1984 77.9946 76.4923 78.7866C76.7863 79.5785 76.9333 80.4708 76.9333 81.4635V82.505H65.7296V80.0314H72.785C72.7795 79.6734 72.687 79.3588 72.5073 79.0876C72.3331 78.811 72.0963 78.5967 71.7969 78.4448C71.5029 78.2875 71.1681 78.2089 70.7925 78.2089C70.4278 78.2089 70.093 78.2875 69.7881 78.4448C69.4832 78.5967 69.2383 78.8083 69.0532 79.0795C68.8735 79.3507 68.7782 79.668 68.7673 80.0314V82.7002C68.7673 83.1016 68.8517 83.4596 69.0205 83.7743C69.1893 84.0889 69.4315 84.3357 69.7473 84.5147C70.063 84.6937 70.4441 84.7832 70.8905 84.7832C71.2008 84.7832 71.4839 84.7398 71.7398 84.653C72.0011 84.5662 72.2243 84.4415 72.4094 84.2787C72.5945 84.1106 72.7306 83.9099 72.8177 83.6766H76.9333C76.7917 84.5445 76.4569 85.2985 75.9289 85.9386C75.4008 86.5732 74.7013 87.0669 73.8302 87.4194C72.9646 87.7666 71.9521 87.9402 70.7925 87.9402Z" fill="white"/>
<path d="M90.2376 79.2829H86.0893C86.0676 79.0279 85.9777 78.8083 85.8199 78.6238C85.662 78.4394 85.4578 78.2984 85.2074 78.2007C84.9624 78.0977 84.6902 78.0461 84.3908 78.0461C84.0043 78.0461 83.6722 78.1166 83.3946 78.2577C83.1169 78.3987 82.9808 78.5994 82.9863 78.8598C82.9808 79.0442 83.0598 79.2151 83.2231 79.3724C83.3919 79.5297 83.7158 79.6517 84.1948 79.7385L86.7426 80.1942C88.0274 80.4274 88.9828 80.8207 89.6088 81.374C90.2403 81.9218 90.5588 82.6568 90.5643 83.579C90.5588 84.4686 90.2921 85.2416 89.764 85.8979C89.2414 86.5488 88.5255 87.0533 87.6164 87.4113C86.7127 87.7639 85.681 87.9402 84.5215 87.9402C82.6052 87.9402 81.1054 87.5496 80.022 86.7685C78.9441 85.9874 78.3426 84.9568 78.2174 83.6766H82.6923C82.7522 84.0726 82.9482 84.3791 83.2803 84.5961C83.6178 84.8076 84.0424 84.9134 84.5541 84.9134C84.9679 84.9134 85.3081 84.8429 85.5749 84.7018C85.8471 84.5608 85.9859 84.3601 85.9913 84.0997C85.9859 83.8611 85.8661 83.6712 85.632 83.5302C85.4034 83.3891 85.0441 83.2752 84.5541 83.1884L82.333 82.7979C81.0537 82.5755 80.0955 82.1524 79.4586 81.5286C78.8217 80.9048 78.5059 80.102 78.5114 79.1202C78.5059 78.2523 78.7346 77.5173 79.1973 76.9151C79.6655 76.3076 80.3324 75.8465 81.1979 75.5319C82.069 75.2119 83.1006 75.0519 84.2928 75.0519C86.1057 75.0519 87.5347 75.4262 88.5799 76.1747C89.6306 76.9233 90.1832 77.9593 90.2376 79.2829Z" fill="white"/>
<path d="M99.7714 75.2146V78.4692H91.5074V75.2146H99.7714ZM93.108 72.2204H97.6155V83.6929C97.6155 83.8665 97.6455 84.0129 97.7054 84.1323C97.7653 84.2462 97.8578 84.333 97.983 84.3926C98.1082 84.4469 98.2688 84.474 98.4648 84.474C98.6009 84.474 98.7588 84.4577 98.9384 84.4252C99.1235 84.3926 99.2596 84.3655 99.3467 84.3438L100 87.5008C99.7986 87.5605 99.51 87.6337 99.1344 87.7205C98.7642 87.8073 98.3233 87.8642 97.8115 87.8914C96.7772 87.9456 95.9089 87.8398 95.2066 87.574C94.5043 87.3028 93.9763 86.877 93.6224 86.2966C93.2686 85.7162 93.0971 84.9893 93.108 84.116V72.2204Z" fill="white"/>
<path d="M50.4203 93.5505H2.80002C2.42219 93.5505 2.10034 93.2343 2.10034 92.8492C2.10034 92.4642 2.42219 92.1479 2.80002 92.1479H50.4203C50.8121 92.1479 51.1199 92.4642 51.1199 92.8492C51.1199 93.2343 50.8121 93.5505 50.4203 93.5505Z" fill="white"/>
<path d="M50.4211 96.9167H40.057C39.6788 96.9167 39.3567 96.6035 39.3567 96.2086C39.3567 95.8274 39.6788 95.5142 40.057 95.5142H50.4211C50.8133 95.5142 51.1214 95.8274 51.1214 96.2086C51.1214 96.6035 50.8133 96.9167 50.4211 96.9167Z" fill="white"/>
<path d="M53.0823 96.8516V92.4021H56.0586V93.1777H54.0327V94.238H55.861V95.0136H54.0327V96.8516H53.0823Z" fill="white"/>
<path d="M57.5994 96.9146C57.3843 96.9146 57.1926 96.8776 57.0243 96.8038C56.856 96.7285 56.7229 96.6177 56.6248 96.4714C56.5283 96.3236 56.48 96.1397 56.48 95.9195C56.48 95.7341 56.5144 95.5784 56.5831 95.4524C56.6519 95.3264 56.7456 95.225 56.8641 95.1483C56.9826 95.0715 57.1172 95.0136 57.2679 94.9745C57.4201 94.9354 57.5796 94.9078 57.7464 94.8919C57.9425 94.8716 58.1005 94.8528 58.2205 94.8354C58.3405 94.8166 58.4276 94.7891 58.4817 94.7529C58.5359 94.7167 58.5629 94.6631 58.5629 94.5921V94.5791C58.5629 94.4415 58.519 94.335 58.4312 94.2597C58.3449 94.1844 58.222 94.1467 58.0625 94.1467C57.8942 94.1467 57.7603 94.1836 57.6608 94.2575C57.5613 94.3299 57.4955 94.4212 57.4633 94.5313L56.5985 94.4617C56.6424 94.259 56.7287 94.0837 56.8575 93.936C56.9863 93.7868 57.1523 93.6724 57.3557 93.5927C57.5606 93.5116 57.7976 93.471 58.0669 93.471C58.2542 93.471 58.4334 93.4928 58.6046 93.5362C58.7773 93.5797 58.9302 93.647 59.0634 93.7383C59.198 93.8295 59.3041 93.9468 59.3816 94.0902C59.4592 94.2322 59.498 94.4024 59.498 94.6008V96.8516H58.6112V96.3888H58.5849C58.5307 96.4931 58.4583 96.5851 58.3676 96.6647C58.2769 96.7429 58.1678 96.8045 58.0405 96.8494C57.9132 96.8928 57.7662 96.9146 57.5994 96.9146ZM57.8671 96.2758C58.0047 96.2758 58.1261 96.249 58.2315 96.1955C58.3369 96.1404 58.4195 96.0665 58.4795 95.9738C58.5395 95.8812 58.5695 95.7761 58.5695 95.6588V95.3047C58.5402 95.3235 58.5 95.3409 58.4488 95.3568C58.399 95.3713 58.3427 95.3851 58.2798 95.3981C58.2169 95.4097 58.1539 95.4206 58.091 95.4307C58.0281 95.4394 57.971 95.4474 57.9198 95.4546C57.8101 95.4705 57.7142 95.4959 57.6323 95.5306C57.5504 95.5654 57.4867 95.6125 57.4413 95.6719C57.396 95.7298 57.3733 95.8022 57.3733 95.8891C57.3733 96.0151 57.4194 96.1114 57.5116 96.1781C57.6052 96.2432 57.7237 96.2758 57.8671 96.2758Z" fill="white"/>
<path d="M63.0284 94.4661L62.1724 94.5182C62.1578 94.4458 62.1263 94.3806 62.0781 94.3227C62.0298 94.2633 61.9661 94.2162 61.8871 94.1815C61.8095 94.1453 61.7166 94.1272 61.6083 94.1272C61.4635 94.1272 61.3413 94.1576 61.2418 94.2184C61.1423 94.2778 61.0925 94.3575 61.0925 94.4574C61.0925 94.5371 61.1247 94.6044 61.1891 94.6594C61.2535 94.7145 61.364 94.7587 61.5206 94.792L62.1307 94.9136C62.4585 94.9803 62.7029 95.0874 62.8638 95.2352C63.0248 95.3829 63.1053 95.577 63.1053 95.8174C63.1053 96.0361 63.0401 96.228 62.9099 96.3932C62.7812 96.5583 62.6041 96.6872 62.3788 96.7799C62.1549 96.8711 61.8966 96.9167 61.604 96.9167C61.1577 96.9167 60.8021 96.8248 60.5372 96.6408C60.2738 96.4554 60.1195 96.2034 60.0741 95.8848L60.9938 95.837C61.0216 95.9717 61.0889 96.0745 61.1957 96.1455C61.3025 96.215 61.4393 96.2498 61.6062 96.2498C61.77 96.2498 61.9017 96.2186 62.0012 96.1563C62.1022 96.0926 62.1534 96.0108 62.1549 95.9108C62.1534 95.8268 62.1176 95.758 62.0473 95.7045C61.9771 95.6494 61.8688 95.6074 61.7225 95.5784L61.1386 95.4633C60.8094 95.3981 60.5643 95.2851 60.4033 95.1244C60.2439 94.9636 60.1641 94.7587 60.1641 94.5095C60.1641 94.2952 60.2226 94.1105 60.3397 93.9555C60.4582 93.8006 60.6243 93.6811 60.8379 93.5971C61.053 93.513 61.3047 93.471 61.593 93.471C62.0188 93.471 62.3539 93.5601 62.5982 93.7383C62.8441 93.9164 62.9875 94.159 63.0284 94.4661Z" fill="white"/>
<path d="M65.4873 93.5145V94.2097H63.457V93.5145H65.4873ZM63.9179 92.715H64.853V95.8261C64.853 95.9116 64.8661 95.9782 64.8925 96.026C64.9188 96.0723 64.9554 96.1049 65.0022 96.1238C65.0505 96.1426 65.1061 96.152 65.169 96.152C65.2129 96.152 65.2568 96.1484 65.3007 96.1411C65.3446 96.1324 65.3783 96.1259 65.4017 96.1216L65.5487 96.8103C65.5019 96.8248 65.4361 96.8414 65.3512 96.8603C65.2663 96.8805 65.1632 96.8928 65.0417 96.8972C64.8164 96.9059 64.6188 96.8762 64.4491 96.8081C64.2808 96.74 64.1499 96.6343 64.0562 96.4909C63.9626 96.3475 63.9165 96.1665 63.9179 95.9478V92.715Z" fill="white"/>
<path d="M69.3399 93.5145V94.2097H67.2591V93.5145H69.3399ZM67.7354 96.8516V93.2733C67.7354 93.0315 67.783 92.8309 67.8781 92.6715C67.9746 92.5122 68.1063 92.3927 68.2731 92.3131C68.44 92.2334 68.6295 92.1936 68.8416 92.1936C68.985 92.1936 69.116 92.2044 69.2345 92.2262C69.3545 92.2479 69.4438 92.2674 69.5023 92.2848L69.3355 92.98C69.2989 92.9685 69.2535 92.9576 69.1994 92.9475C69.1467 92.9373 69.0926 92.9322 69.037 92.9322C68.8994 92.9322 68.8036 92.9641 68.7494 93.0278C68.6953 93.0901 68.6682 93.1777 68.6682 93.2907V96.8516H67.7354Z" fill="white"/>
<path d="M71.3136 96.9167C70.9727 96.9167 70.6778 96.8451 70.4291 96.7017C70.1818 96.5568 69.9908 96.3555 69.8562 96.0977C69.7216 95.8384 69.6543 95.5379 69.6543 95.1961C69.6543 94.8514 69.7216 94.5501 69.8562 94.2923C69.9908 94.033 70.1818 93.8317 70.4291 93.6883C70.6778 93.5435 70.9727 93.471 71.3136 93.471C71.6546 93.471 71.9487 93.5435 72.196 93.6883C72.4447 93.8317 72.6364 94.033 72.771 94.2923C72.9057 94.5501 72.973 94.8514 72.973 95.1961C72.973 95.5379 72.9057 95.8384 72.771 96.0977C72.6364 96.3555 72.4447 96.5568 72.196 96.7017C71.9487 96.8451 71.6546 96.9167 71.3136 96.9167ZM71.318 96.1998C71.4731 96.1998 71.6026 96.1563 71.7065 96.0694C71.8104 95.9811 71.8887 95.8609 71.9414 95.7088C71.9955 95.5567 72.0226 95.3836 72.0226 95.1896C72.0226 94.9955 71.9955 94.8224 71.9414 94.6703C71.8887 94.5182 71.8104 94.398 71.7065 94.3097C71.6026 94.2213 71.4731 94.1771 71.318 94.1771C71.1614 94.1771 71.0298 94.2213 70.9229 94.3097C70.8176 94.398 70.7378 94.5182 70.6837 94.6703C70.631 94.8224 70.6047 94.9955 70.6047 95.1896C70.6047 95.3836 70.631 95.5567 70.6837 95.7088C70.7378 95.8609 70.8176 95.9811 70.9229 96.0694C71.0298 96.1563 71.1614 96.1998 71.318 96.1998Z" fill="white"/>
<path d="M75.1042 96.9167C74.7633 96.9167 74.4684 96.8451 74.2197 96.7017C73.9724 96.5568 73.7814 96.3555 73.6468 96.0977C73.5122 95.8384 73.4449 95.5379 73.4449 95.1961C73.4449 94.8514 73.5122 94.5501 73.6468 94.2923C73.7814 94.033 73.9724 93.8317 74.2197 93.6883C74.4684 93.5435 74.7633 93.471 75.1042 93.471C75.4452 93.471 75.7393 93.5435 75.9866 93.6883C76.2353 93.8317 76.427 94.033 76.5616 94.2923C76.6962 94.5501 76.7635 94.8514 76.7635 95.1961C76.7635 95.5379 76.6962 95.8384 76.5616 96.0977C76.427 96.3555 76.2353 96.5568 75.9866 96.7017C75.7393 96.8451 75.4452 96.9167 75.1042 96.9167ZM75.1086 96.1998C75.2637 96.1998 75.3932 96.1563 75.4971 96.0694C75.601 95.9811 75.6793 95.8609 75.732 95.7088C75.7861 95.5567 75.8132 95.3836 75.8132 95.1896C75.8132 94.9955 75.7861 94.8224 75.732 94.6703C75.6793 94.5182 75.601 94.398 75.4971 94.3097C75.3932 94.2213 75.2637 94.1771 75.1086 94.1771C74.952 94.1771 74.8203 94.2213 74.7135 94.3097C74.6082 94.398 74.5284 94.5182 74.4743 94.6703C74.4216 94.8224 74.3953 94.9955 74.3953 95.1896C74.3953 95.3836 74.4216 95.5567 74.4743 95.7088C74.5284 95.8609 74.6082 95.9811 74.7135 96.0694C74.8203 96.1563 74.952 96.1998 75.1086 96.1998Z" fill="white"/>
<path d="M78.6138 96.9059C78.3578 96.9059 78.1258 96.8407 77.9181 96.7104C77.7117 96.5785 77.5479 96.3852 77.4264 96.1303C77.3064 95.8739 77.2464 95.5596 77.2464 95.1874C77.2464 94.805 77.3086 94.4871 77.433 94.2336C77.5574 93.9787 77.7227 93.7882 77.929 93.6622C78.1368 93.5348 78.3644 93.471 78.6117 93.471C78.8004 93.471 78.9577 93.5029 79.0836 93.5666C79.2109 93.6289 79.3133 93.7071 79.3908 93.8013C79.4699 93.894 79.5299 93.9852 79.5708 94.075H79.5994V92.4021H80.5322V96.8516H79.6103V96.3171H79.5708C79.5269 96.4098 79.4647 96.5018 79.3843 96.593C79.3052 96.6828 79.2021 96.7574 79.0748 96.8168C78.9489 96.8762 78.7953 96.9059 78.6138 96.9059ZM78.9102 96.1694C79.0609 96.1694 79.1882 96.1288 79.2921 96.0477C79.3974 95.9652 79.4779 95.85 79.5335 95.7023C79.5906 95.5545 79.6191 95.3815 79.6191 95.183C79.6191 94.9846 79.5913 94.8122 79.5357 94.666C79.4801 94.5197 79.3996 94.4067 79.2943 94.327C79.1889 94.2474 79.0609 94.2075 78.9102 94.2075C78.7565 94.2075 78.627 94.2488 78.5217 94.3314C78.4163 94.4139 78.3366 94.5284 78.2824 94.6747C78.2283 94.8209 78.2012 94.9904 78.2012 95.183C78.2012 95.3771 78.2283 95.5487 78.2824 95.6979C78.338 95.8457 78.4178 95.9615 78.5217 96.0455C78.627 96.1281 78.7565 96.1694 78.9102 96.1694Z" fill="white"/>
<path d="M84.1099 96.9167C83.7997 96.9167 83.5319 96.8617 83.3065 96.7516C83.0812 96.6416 82.9078 96.4924 82.7863 96.3041C82.6664 96.1143 82.6064 95.9029 82.6064 95.6697C82.6064 95.4959 82.6415 95.3416 82.7117 95.2069C82.782 95.0722 82.88 94.9484 83.0058 94.8354C83.1317 94.721 83.278 94.6073 83.4448 94.4943L84.3162 93.9273C84.4289 93.8563 84.5115 93.7817 84.5642 93.7035C84.6169 93.6238 84.6432 93.5377 84.6432 93.445C84.6432 93.3566 84.6074 93.2748 84.5357 93.1995C84.464 93.1242 84.3623 93.0872 84.2306 93.0887C84.1428 93.0887 84.0667 93.1082 84.0023 93.1473C83.9379 93.185 83.8874 93.235 83.8509 93.2972C83.8158 93.3581 83.7982 93.4261 83.7982 93.5015C83.7982 93.5942 83.8245 93.6883 83.8772 93.7839C83.9299 93.8795 84.0001 93.9809 84.0879 94.0881C84.1757 94.1938 84.2716 94.3082 84.3754 94.4313L86.5067 96.8516H85.5322L83.7543 94.8919C83.6372 94.7601 83.5202 94.6225 83.4031 94.4791C83.2875 94.3343 83.1909 94.1808 83.1134 94.0185C83.0358 93.8549 82.9971 93.6774 82.9971 93.4863C82.9971 93.2704 83.0475 93.0764 83.1485 92.904C83.2509 92.7316 83.3943 92.5955 83.5787 92.4956C83.7631 92.3942 83.9782 92.3435 84.224 92.3435C84.464 92.3435 84.671 92.392 84.8452 92.489C85.0207 92.5846 85.1554 92.7121 85.249 92.8714C85.3441 93.0293 85.3917 93.2031 85.3917 93.3928C85.3917 93.6028 85.339 93.7933 85.2337 93.9642C85.1298 94.1337 84.9834 94.2858 84.7947 94.4205L83.8772 95.0744C83.7528 95.1642 83.6606 95.2562 83.6007 95.3503C83.5421 95.443 83.5129 95.5321 83.5129 95.6175C83.5129 95.7233 83.5392 95.8181 83.5919 95.9022C83.6445 95.9862 83.7192 96.0528 83.8158 96.102C83.9123 96.1498 84.0257 96.1737 84.156 96.1737C84.314 96.1737 84.4698 96.1382 84.6235 96.0673C84.7786 95.9949 84.9191 95.8927 85.0449 95.7609C85.1722 95.6277 85.2739 95.4698 85.35 95.2873C85.4261 95.1048 85.4641 94.9028 85.4641 94.6812H86.2389C86.2389 94.9535 86.2089 95.199 86.1489 95.4177C86.0889 95.6349 86.0055 95.8247 85.8987 95.9869C85.7919 96.1477 85.6697 96.2795 85.5322 96.3823C85.4883 96.4098 85.4458 96.4359 85.4049 96.4605C85.3639 96.4851 85.3214 96.5112 85.2775 96.5387C85.1107 96.672 84.9242 96.7683 84.7179 96.8277C84.513 96.8871 84.3103 96.9167 84.1099 96.9167Z" fill="white"/>
<path d="M91.325 93.8404C91.2943 93.7347 91.2511 93.6412 91.1955 93.5601C91.1399 93.4776 91.0719 93.408 90.9914 93.3516C90.9124 93.2936 90.8217 93.2494 90.7192 93.219C90.6183 93.1886 90.5063 93.1734 90.3834 93.1734C90.1537 93.1734 89.9518 93.2299 89.7776 93.3429C89.605 93.4558 89.4703 93.6202 89.3738 93.836C89.2772 94.0504 89.2289 94.3126 89.2289 94.6225C89.2289 94.9325 89.2765 95.1961 89.3716 95.4133C89.4667 95.6306 89.6013 95.7964 89.7754 95.9108C89.9496 96.0238 90.1552 96.0803 90.3922 96.0803C90.6073 96.0803 90.7909 96.0426 90.9431 95.9673C91.0968 95.8906 91.2138 95.7827 91.2943 95.6436C91.3763 95.5046 91.4172 95.3402 91.4172 95.1504L91.6104 95.1787H90.4515V94.4704H92.3325V95.031C92.3325 95.422 92.2491 95.758 92.0823 96.039C91.9155 96.3186 91.6857 96.5344 91.3931 96.6865C91.1004 96.8371 90.7653 96.9124 90.3878 96.9124C89.9664 96.9124 89.5962 96.8204 89.2772 96.6365C88.9582 96.4511 88.7095 96.1882 88.5309 95.8478C88.3539 95.506 88.2654 95.1005 88.2654 94.6312C88.2654 94.2706 88.318 93.949 88.4234 93.6666C88.5302 93.3827 88.6795 93.1423 88.8711 92.9453C89.0628 92.7483 89.286 92.5984 89.5406 92.4956C89.7952 92.3927 90.071 92.3413 90.3681 92.3413C90.6227 92.3413 90.8597 92.3782 91.0792 92.4521C91.2987 92.5245 91.4933 92.6274 91.663 92.7606C91.8343 92.8939 91.974 93.0525 92.0823 93.2364C92.1906 93.4189 92.2601 93.6202 92.2908 93.8404H91.325Z" fill="white"/>
<path d="M93.0288 96.8516V93.5145H93.9353V94.0967H93.9704C94.0319 93.8896 94.1351 93.7332 94.2799 93.6275C94.4248 93.5203 94.5916 93.4667 94.7803 93.4667C94.8272 93.4667 94.8777 93.4696 94.9318 93.4754C94.9859 93.4812 95.0335 93.4892 95.0745 93.4993V94.3205C95.0306 94.3075 94.9698 94.2959 94.8923 94.2858C94.8147 94.2756 94.7438 94.2706 94.6794 94.2706C94.5418 94.2706 94.4189 94.3002 94.3106 94.3596C94.2038 94.4176 94.119 94.4987 94.056 94.603C93.9946 94.7072 93.9638 94.8275 93.9638 94.9636V96.8516H93.0288Z" fill="white"/>
<path d="M95.5579 96.8516V93.5145H96.4929V96.8516H95.5579ZM96.0276 93.0843C95.8886 93.0843 95.7693 93.0387 95.6698 92.9475C95.5718 92.8548 95.5228 92.744 95.5228 92.6151C95.5228 92.4876 95.5718 92.3782 95.6698 92.287C95.7693 92.1943 95.8886 92.1479 96.0276 92.1479C96.1666 92.1479 96.2851 92.1943 96.3832 92.287C96.4827 92.3782 96.5324 92.4876 96.5324 92.6151C96.5324 92.744 96.4827 92.8548 96.3832 92.9475C96.2851 93.0387 96.1666 93.0843 96.0276 93.0843Z" fill="white"/>
<path d="M98.1769 92.4021V96.8516H97.2419V92.4021H98.1769Z" fill="white"/>
<path d="M99.861 92.4021V96.8516H98.926V92.4021H99.861Z" fill="white"/>
</svg>
