<svg width="29" height="24" viewBox="0 0 29 24" fill="none" xmlns="http://www.w3.org/2000/svg">
<path d="M28.5539 3.17049C27.5101 3.63299 26.3889 3.94549 25.2101 4.08674C26.4264 3.35898 27.3363 2.21357 27.7701 0.864242C26.6274 1.54298 25.3768 2.02074 24.0726 2.27674C23.1956 1.34032 22.034 0.719649 20.768 0.511084C19.5021 0.302519 18.2028 0.517731 17.0717 1.12331C15.9406 1.72888 15.0411 2.69094 14.5128 3.86012C13.9846 5.0293 13.8571 6.34018 14.1501 7.58924C11.8347 7.47299 9.56967 6.87118 7.50192 5.82287C5.43416 4.77457 3.60994 3.30319 2.14764 1.50424C1.64764 2.36674 1.36014 3.36674 1.36014 4.43174C1.35958 5.39049 1.59568 6.33454 2.04748 7.18016C2.49929 8.02577 3.15284 8.74679 3.95014 9.27924C3.02548 9.24982 2.12123 8.99997 1.31264 8.55049V8.62549C1.31254 9.97017 1.77768 11.2735 2.62912 12.3142C3.48055 13.355 4.66585 14.0692 5.98389 14.3355C5.12612 14.5676 4.22681 14.6018 3.35389 14.4355C3.72576 15.5925 4.45013 16.6043 5.4256 17.3291C6.40106 18.054 7.57878 18.4557 8.79389 18.478C6.73118 20.0973 4.18375 20.9756 1.56139 20.9717C1.09686 20.9719 0.632732 20.9447 0.171387 20.8905C2.83323 22.602 5.93181 23.5103 9.09639 23.5067C19.8089 23.5067 25.6651 14.6342 25.6651 6.93924C25.6651 6.68924 25.6589 6.43674 25.6476 6.18674C26.7868 5.36296 27.77 4.34286 28.5514 3.17424L28.5539 3.17049Z" fill="white"/>
</svg>
